<svg id="Group_409" data-name="Group 409" xmlns="http://www.w3.org/2000/svg" width="157.833" height="157.83" viewBox="0 0 157.833 157.83">
  <path id="Path_3815" data-name="Path 3815" d="M132.283,420.218a28.219,28.219,0,1,0,28.067,28.2A28.261,28.261,0,0,0,132.283,420.218ZM149.925,441.9q-11.076,11.052-22.125,22.13c-.526.529-.842.429-1.3-.029q-7.382-7.406-14.791-14.786c-.405-.405-.526-.715-.066-1.171,2.057-2.031,4.093-4.085,6.14-6.124a4.95,4.95,0,0,1,.566-.413c.281.247.547.46.787.7,2.4,2.4,4.824,4.772,7.179,7.213.687.713,1.071.631,1.723-.029,4.793-4.851,9.63-9.657,14.431-14.5.605-.61.992-.723,1.649-.029,1.883,1.978,3.833,3.9,5.787,5.8C150.378,441.128,150.388,441.438,149.925,441.9Z" transform="translate(-53.205 -389.299)" fill="#696868"/>
  <path id="Path_3816" data-name="Path 3816" d="M163.546,408.464a78.915,78.915,0,1,0,78.918,78.915A78.9,78.9,0,0,0,163.546,408.464Zm-16.525,138.48c-.871-1.665-1.636-3.12-2.4-4.574-1.173-2.257-2.333-4.519-3.517-6.768-.571-1.084-.9-1.165-2.041-.7-3.833,1.563-7.668,3.109-11.79,4.78,4.656-12.584,9.225-24.935,13.847-37.429,2.107,1.67,4.261,2.607,6.787,2.239a13.736,13.736,0,0,0,2.62-.723,5.227,5.227,0,0,1,6.05,1.531,9.926,9.926,0,0,0,4.572,3.367C156.457,521.386,151.782,534.049,147.021,546.944Zm39.294-12.674q-3.942-2.486-7.881-4.977c-.971-.61-1.276-.547-1.962.342q-3.606,4.648-7.21,9.3c-.166.21-.368.395-.692.739-1.81-10.293-3.585-20.4-5.377-30.593.466-.053.831-.087,1.2-.134a8.461,8.461,0,0,0,5.75-3.228c1.891-2.344,3.933-2.859,6.768-1.8a8.083,8.083,0,0,0,5.795.2c.258-.095.534-.142.929-.245,1.878,10.7,3.748,21.344,5.666,32.258C188.173,535.43,187.242,534.857,186.316,534.27Zm14.131-61.1a6.678,6.678,0,0,0-2.139,8.191,6.709,6.709,0,0,1-5.164,9.4,6.879,6.879,0,0,0-5.79,4.1,9.435,9.435,0,0,0-.61,2.26,6.687,6.687,0,0,1-9.351,5.271,6.877,6.877,0,0,0-8.3,2.12,6.853,6.853,0,0,1-6.316,2.817,6.151,6.151,0,0,1-4.4-2.431,7.031,7.031,0,0,0-6.332-3.041,8.119,8.119,0,0,0-2.275.529c-4.467,1.694-8.675-.671-9.42-5.4a6.929,6.929,0,0,0-4.167-5.635,11.036,11.036,0,0,0-2.36-.615,6.674,6.674,0,0,1-5.093-9.236c1.286-3.356.61-6.332-2.244-8.489a6.829,6.829,0,0,1-.013-10.817c2.841-2.162,3.551-5.174,2.27-8.486-1.7-4.411.8-8.589,5.621-9.373a6.792,6.792,0,0,0,5.953-6.019,6.66,6.66,0,0,1,5.011-5.84,16.634,16.634,0,0,1,1.828-.3,12.676,12.676,0,0,1,2.32.579,7.363,7.363,0,0,0,8.967-2.483,6.569,6.569,0,0,1,9.486-.821,12.531,12.531,0,0,1,1.265,1.394,6.879,6.879,0,0,0,8,2.036c4.638-1.789,8.778.573,9.588,5.471a6.789,6.789,0,0,0,5.984,5.99c3.5.616,5.579,2.536,6.026,5.9a7.82,7.82,0,0,1-.487,3.483c-1.155,3.254-.563,6.245,2.21,8.354A6.887,6.887,0,0,1,200.447,473.174Z" transform="translate(-84.631 -408.464)" fill="#696868"/>
</svg>
