<svg id="Group_406" data-name="Group 406" xmlns="http://www.w3.org/2000/svg" width="157.83" height="157.83" viewBox="0 0 157.83 157.83">
  <path id="Path_3813" data-name="Path 3813" d="M347.546,408.464a78.915,78.915,0,1,0,78.915,78.915A78.9,78.9,0,0,0,347.546,408.464Zm-27.918,44.258a3.712,3.712,0,0,1,3-1.833,1.158,1.158,0,0,0,.952-.513c.074-1.171.221-2.344.366-3.517a17.737,17.737,0,0,1,.439-1.9,1.353,1.353,0,0,1,.147-.513,22.61,22.61,0,0,1,.952-2.93,23.072,23.072,0,0,1,1.539-3q1.211-1.76,2.638-3.517a17.354,17.354,0,0,1,3.225-2.933c.876-.658,1.831-1.244,2.709-1.9.734-.439,1.321-.218,1.539.66.074.66.147,1.392.218,2.052.074.147,0,.366.074.513.295,1.683.66,3.443,1.029,5.13a12.568,12.568,0,0,1,.218,1.61,2.43,2.43,0,0,0,.952,1.907,1.532,1.532,0,0,0,1.392.218c.513-.292,1.026-.513,1.173-1.244a2.451,2.451,0,0,0,0-.734c-.218-1.683-.587-3.3-.8-4.908a8.732,8.732,0,0,1-.221-1.465,14.949,14.949,0,0,0-.366-1.76c-.074-.513-.221-.952-.292-1.465-.147-.8-.295-1.612-.442-2.491,0-.147-.074-.366-.074-.66a5.077,5.077,0,0,1,.808-1.026,4.536,4.536,0,0,1,3.3-1.392h6.447a4.8,4.8,0,0,1,4.545,2.417v.442a17.558,17.558,0,0,0-.66,3.443c-.295,1.831-.734,3.662-1.026,5.5a28.9,28.9,0,0,0-.513,3.517,1.688,1.688,0,0,0,1.171,1.831,1.943,1.943,0,0,0,2.346-1.9c.074-.8.292-1.686.439-2.491l.221-1.539c.221-.8.366-1.686.51-2.491.147-.734.221-1.465.295-2.2.074-.292.074-.658.147-.952a.879.879,0,0,1,1.392-.587,28.309,28.309,0,0,1,5.274,4.1c.807.879,1.541,1.833,2.273,2.786.66.952,1.321,1.9,1.9,2.93.368.731.587,1.539.955,2.27a13.223,13.223,0,0,1,.95,2.859,14.922,14.922,0,0,1,.368,1.757q.221,1.87.439,3.517a.945.945,0,0,0,.952.587,3.59,3.59,0,0,1,3.443,4.177,6.377,6.377,0,0,1-.658,1.539,4.422,4.422,0,0,1-3.738,1.465H323.437a18.323,18.323,0,0,1-1.831-.218A3.47,3.47,0,0,1,319.628,452.722Zm7.839,17.219a5.215,5.215,0,0,0,.439.658,11.657,11.657,0,0,0,1.468.439,8.691,8.691,0,0,1,.95,1.833c.442.952.807,1.9,1.247,2.783.513.952.952,1.833,1.539,2.712a35.255,35.255,0,0,0,2.417,3.37,18.766,18.766,0,0,0,4.1,3.885,18.2,18.2,0,0,0,3.3,1.831,12.534,12.534,0,0,0,6.96.439,14.313,14.313,0,0,0,2.786-1.026,9.4,9.4,0,0,0,2.567-1.612,15.7,15.7,0,0,0,3.37-3.222c.8-1.026,1.683-2.052,2.417-3.078.366-.513.658-1.1.952-1.612a18.121,18.121,0,0,0,1.17-2.052,14.943,14.943,0,0,0,.808-1.9c.368-.734.66-1.465.952-2.2a.158.158,0,0,1,.147-.147c.513-.145,1.026-.292,1.61-.439.442-.952.881-1.831,1.247-2.709a2.337,2.337,0,0,0,.221-1.026,11.379,11.379,0,0,0,.147-3.517c-.147-.808.071-1.026.879-1.026h2.786a.839.839,0,0,1,.658.879,10.014,10.014,0,0,1-.587,3.883v.221a11.046,11.046,0,0,1-1.539,3.883,14.027,14.027,0,0,1-1.026,1.1,5.393,5.393,0,0,0-.879.952c-.439.952-.952,1.978-1.391,2.93a27.232,27.232,0,0,1-1.686,3.225c-.513.952-1.171,1.831-1.76,2.783a19.938,19.938,0,0,1-1.536,1.978c-1.029,1.173-2.125,2.273-3.154,3.446a21.726,21.726,0,0,1-4.248,3.078c-.8.439-1.684.658-2.491,1.1a16.472,16.472,0,0,1-4.175.955,10.629,10.629,0,0,1-2.125-.074c-.734-.074-1.539-.221-2.273-.368a5.181,5.181,0,0,1-1.026-.292,1.547,1.547,0,0,0-.513-.221,10.4,10.4,0,0,1-3.517-1.684,26.358,26.358,0,0,1-5.13-4.324,39.935,39.935,0,0,1-4.175-5.642,32.707,32.707,0,0,1-2.125-3.883c-.442-1.026-.881-2.052-1.392-3.222a5.823,5.823,0,0,1-2.2-2.052,8.41,8.41,0,0,1-.881-1.833,13.019,13.019,0,0,1-.952-4.03,12.953,12.953,0,0,0-.145-1.684c-.074-.807.218-1.1,1.023-1.1h2.638c.734,0,.879.218.879.952v2.491A7.193,7.193,0,0,0,327.467,469.941Zm39.715,62.427a1.8,1.8,0,0,1-1.539,1.686c-.879.147-1.76.365-2.857.587a7.417,7.417,0,0,0-.513,1.1c-.074.145-.074.366-.221.513-.513.8-.147,1.391.292,1.978.221.292.442.584.66.879a2.456,2.456,0,0,1,.439,2.709c-1.1,1.173-2.2,2.346-3.443,3.446a9.049,9.049,0,0,1-1.686.879,19.593,19.593,0,0,1-2.417-1.539,1.918,1.918,0,0,0-2.052-.292l-1.318.658c-.66,1.1-.516,2.491-.879,3.664a3.319,3.319,0,0,1-2.494,1.026,21.438,21.438,0,0,0-3.075,0,3.371,3.371,0,0,1-2.567-1.026c-.218-1.173-.513-2.417-.8-3.591-.66-.366-1.318-.587-1.9-.879a1.622,1.622,0,0,0-1.32.218c-.879.587-1.684,1.173-2.417,1.612a2.415,2.415,0,0,1-2.052-.8c-1.173-1.026-2.27-2.125-3.078-2.859a3.057,3.057,0,0,1,.587-3.809,3.088,3.088,0,0,1,.368-.513,1.434,1.434,0,0,0,.218-1.686,7.807,7.807,0,0,0-.879-1.757,15.114,15.114,0,0,1-1.686-.221,13.119,13.119,0,0,1-1.612-.513,1.168,1.168,0,0,1-.879-1.026,3.093,3.093,0,0,1-.147-.8c0-1.686,0-3.37.147-5.056,0-.8.879-1.392,1.831-1.539.366,0,.734-.074,1.026-.074.368-.074.734-.074,1.1-.147.881-.658.952-1.757,1.391-2.709a23.04,23.04,0,0,0-1.318-1.978,2.53,2.53,0,0,1-.439-2.565c1.173-1.173,2.27-2.491,3.517-3.591,1.318-1.1,1.9-.807,3.37.218a5.776,5.776,0,0,0,1.833,1.1c.658-.292,1.392-.587,2.2-.879a8.77,8.77,0,0,0,.808-3.517,2.817,2.817,0,0,1,2.491-1.173,24.586,24.586,0,0,0,3.3,0,2.358,2.358,0,0,1,2.565,1.394,10.365,10.365,0,0,0,.808,3.222c.731.366,1.465.66,2.2.952.734-.074,1.173-.658,1.76-.952a6.591,6.591,0,0,1,1.171-.8,1.8,1.8,0,0,1,2.346.513c1.171,1.171,2.344,2.344,3.443,3.517a2.5,2.5,0,0,1-.439,2.638c-.439.513-.8,1.171-1.32,1.9a8.743,8.743,0,0,0,1.394,2.709c.513.074,1.1.147,1.61.221a4.1,4.1,0,0,1,1.615.439,1.223,1.223,0,0,1,.8,1.173c.074,1.1.145,2.2.145,3.3C367.254,530.977,367.183,531.708,367.183,532.368Zm25.645-14.215a14.818,14.818,0,0,1-.808,1.907,9.762,9.762,0,0,1-1.831,2.049,20.13,20.13,0,0,1-3.664,2.2,45.524,45.524,0,0,1-4.4,1.76c-1.1.439-2.273.513-3.443.879a46.467,46.467,0,0,1-4.617.879c-.513.147-1.1.295-1.612.439a.741.741,0,0,1-.879-.366,6.3,6.3,0,0,0-3.883-6.082,2.012,2.012,0,0,1,0-1.465,4.474,4.474,0,0,0,0-2.93,6.821,6.821,0,0,0-2.052-3.3c-1.173-1.1-2.273-2.27-3.443-3.3a5.576,5.576,0,0,0-4.764-1.247,11.892,11.892,0,0,0-1.391.295,5.312,5.312,0,0,1-.879-.955,5.646,5.646,0,0,0-5.2-2.93q-2.419-.111-4.837,0a5.746,5.746,0,0,0-4.835,2.417,4.184,4.184,0,0,1-1.318,1.468,6.241,6.241,0,0,0-1.247-.295,6.583,6.583,0,0,0-2.93.147,6.021,6.021,0,0,0-2.346,1.465c-1.244,1.173-2.488,2.344-3.664,3.664a5.589,5.589,0,0,0-1.391,5.569,4.032,4.032,0,0,1,.147,1.318,6.547,6.547,0,0,0-4.03,6.3c-.221.074-.513.145-.734.218-.145,0-.292-.074-.437-.074-1.686-.366-3.446-.731-5.132-1.1-.366-.074-.658-.147-1.026-.221a10.035,10.035,0,0,1-1.392-.366,5.381,5.381,0,0,1-1.026-.295,8.507,8.507,0,0,1-1.318-.366,1.1,1.1,0,0,0-.513-.218,20.022,20.022,0,0,1-4.1-1.613,12.166,12.166,0,0,1-4.322-3.372,5.542,5.542,0,0,1-1.026-1.978,7.948,7.948,0,0,1-.587-3.443c.074-.731.221-1.465.366-2.2a1.816,1.816,0,0,0,.145-.513,21.848,21.848,0,0,1,1.686-4.761,28.409,28.409,0,0,1,2.054-4.251,23.153,23.153,0,0,1,5.056-5.934,12.759,12.759,0,0,1,2.636-1.76c.881-.366,1.757-.731,2.712-1.026,1.539-.439,3.149-.513,4.688-.879a13.008,13.008,0,0,1,2.42-.292c1.171-.074,2.417-.074,3.664-.147a10.931,10.931,0,0,0,1.463-.147,1.282,1.282,0,0,1,1.394.66,8.263,8.263,0,0,0,3.222,2.93,10.519,10.519,0,0,0,2.786,1.247,13.05,13.05,0,0,0,3.591.952,3.09,3.09,0,0,0,.8.147,19.765,19.765,0,0,0,2.859.513c1.244.071,2.565.145,3.809.145,2.052-.074,4.1-.145,6.082-.366a18.87,18.87,0,0,0,3.443-.66c.952-.218,1.833-.731,2.786-1.026a8.777,8.777,0,0,0,2.857-1.465,6.922,6.922,0,0,0,2.491-2.344c.292-.66.808-.808,1.539-.734a28.484,28.484,0,0,0,3.591.221,25.607,25.607,0,0,1,4.69.513,14.971,14.971,0,0,0,1.831.218,14.058,14.058,0,0,1,3,.807,15.666,15.666,0,0,1,4.177,2.344,25.691,25.691,0,0,1,3.664,3.812,17.1,17.1,0,0,1,1.757,2.709c.66,1.1,1.247,2.273,1.833,3.446.218.584.439,1.171.658,1.757.366,1.026.66,2.052.952,3.078a8.37,8.37,0,0,1,.513,1.831A7.787,7.787,0,0,1,392.827,518.153Zm-45.355,3.885a7.8,7.8,0,0,0,.145,15.607,7.8,7.8,0,0,0-.145-15.607Z" transform="translate(-268.631 -408.464)" fill="#696868"/>
</svg>
