<svg xmlns="http://www.w3.org/2000/svg" width="157.83" height="157.83" viewBox="0 0 157.83 157.83">
  <path id="Path_3814" data-name="Path 3814" d="M531.545,408.464a78.915,78.915,0,1,0,78.915,78.915A78.9,78.9,0,0,0,531.545,408.464ZM517.164,452.38c1.5-.552,3.091-1.139,4.84-1.781.3-2.065.681-4.172.892-6.3.158-1.581.858-2.312,2.462-2.3,4.117.034,8.233.045,12.35-.008a2.143,2.143,0,0,1,2.467,2.112c.2,1.52.479,3.036.555,4.564.068,1.413.513,2.289,2.02,2.594a10.071,10.071,0,0,1,3.1,1.147c1.584.939,2.691.5,3.841-.744.994-1.079,2.2-1.954,3.27-2.973a1.862,1.862,0,0,1,2.888-.095c3.272,2.788,6.589,5.521,9.9,8.26a1.851,1.851,0,0,1,.4,2.746c-1.213,1.92-2.394,3.859-3.567,5.758,1.063,1.868,2.036,3.717,3.167,5.461a2.274,2.274,0,0,0,1.636.792c1.839.055,3.685-.018,5.524-.118a1.949,1.949,0,0,1,2.318,1.8c.755,4.348,1.523,8.7,2.26,13.047.208,1.239-.608,1.762-1.623,2.091l-6.226,2.031-1.144,5.553c-3.7.973-6.963,1.833-10.39,2.736.118-.437.216-.942.389-1.418a28.612,28.612,0,0,0-20.134-37.677,28.151,28.151,0,0,0-16.146.721,2.25,2.25,0,0,1-2.736-.655C517.146,457.339,516.685,456.063,517.164,452.38Zm11.353,14.263a3.131,3.131,0,0,1-3.4-1.131c-.584-.768-1.31-1.431-2.1-2.283,7.629-3.32,19.36-1.723,27,6.082,7.692,7.855,9.028,19.763,5.561,27.01a4.771,4.771,0,0,1-3.259-5.627C554.725,476.9,542.356,464.383,528.517,466.643ZM540.486,532.5a2.47,2.47,0,0,1-1.989-1.044c-1.044-1.581-1.784-3.362-2.791-4.972a2.911,2.911,0,0,0-1.686-1.028c-.692-.174-1.489.084-2.2-.055-3.2-.639-4.819.871-6.058,3.717-1.741,4.006-1.923,3.914-6.134,2.367-3.112-1.142-6.221-2.291-9.362-3.349-1.6-.537-2.1-1.436-1.673-3.07.529-2.01.907-4.059,1.36-6.132-1.673-1.431-3.251-2.878-4.951-4.164a2.321,2.321,0,0,0-1.839-.116,52.747,52.747,0,0,0-5.137,2.015,1.808,1.808,0,0,1-2.633-.815c-2.217-3.822-4.4-7.665-6.629-11.485a1.631,1.631,0,0,1,.539-2.386c1.457-1.128,2.87-2.317,4.364-3.391.9-.647,1.363-1.239.9-2.431a9.035,9.035,0,0,1-.655-3.236,2.839,2.839,0,0,0-2.528-3.207,22.1,22.1,0,0,1-4.193-1.352c-.629-.276-1.542-1.079-1.489-1.544.426-3.622,1.057-7.221,1.681-11.172,6.116,3.438,11.856,3.125,17.758-.334-.739,2.883-1.441,5.148-1.891,7.463-2.978,15.352,8.425,31.014,23.951,33.071a29.782,29.782,0,0,0,14.147-1.407,1.76,1.76,0,0,1,2.11.45,9.139,9.139,0,0,1,2.833,6.361,85.973,85.973,0,0,0,1.465,8.67C545.55,530.73,543.056,531.745,540.486,532.5Zm-20.239-27.386a19.784,19.784,0,0,0,13.171,3.209c3.685-.334,4.269-.1,6.447,3.251-7.3,3.325-19.555,1.82-27.478-6.763-7.244-7.847-8.241-19.826-4.548-27.042,1.057,1.234,2.073,2.286,2.909,3.467a2.542,2.542,0,0,1,.158,1.7C509.391,492.29,512.34,499.784,520.247,505.114ZM583.8,516.028c-3.4-1.841-6.779-3.735-10.106-5.708a3.516,3.516,0,0,0-3.635-.139,15.423,15.423,0,0,0-8.452,14.781,3.661,3.661,0,0,0,2.057,3.22c3.412,1.82,6.763,3.759,10.1,5.713.5.292.8.931,1.192,1.41-.581.363-1.178,1.065-1.744,1.039-5.84-.271-11.674-.723-17-3.493-4.4-2.289-6.895-5.95-6.9-10.93a13.066,13.066,0,0,0-4.122-9.651c-12.053-12.276-23.987-24.669-35.964-37.019-.471-.487-.96-.955-1.428-1.439a3.7,3.7,0,0,0-4.722-.823c-7.71,4.443-13.994,1.22-18.666-3.756a96.269,96.269,0,0,1-6.81-8.683c-.355-.481-.205-1.339-.287-2.02a5.371,5.371,0,0,1,1.973.218c3.451,1.873,6.868,3.817,10.267,5.8a3.211,3.211,0,0,0,3.291.095,15.174,15.174,0,0,0,8.546-15.047,3.543,3.543,0,0,0-2.018-3.025c-3.362-1.786-6.65-3.712-9.959-5.595-.518-.295-.989-.666-1.484-1l-.068-.671c.718-.31,1.449-.918,2.149-.881,5.464.281,10.9.737,15.978,3.091,5.014,2.323,7.752,6.219,7.815,11.693a12.727,12.727,0,0,0,4.08,9.275c12.087,12.326,24.045,24.779,36.051,37.19.429.442.844.9,1.3,1.31a4.145,4.145,0,0,0,5.082.658c5.7-3.217,10.982-2.331,15.888,1.644a44.357,44.357,0,0,1,9.349,11.08c.3.476.155,1.231.218,1.857A5.251,5.251,0,0,1,583.8,516.028Z" transform="translate(-452.63 -408.464)" fill="#696868"/>
</svg>
